<?xml version="1.0" standalone="no"?>
<!DOCTYPE svg PUBLIC "-//W3C//DTD SVG 20010904//EN"
 "http://www.w3.org/TR/2001/REC-SVG-20010904/DTD/svg10.dtd">
<svg version="1.0" xmlns="http://www.w3.org/2000/svg"
 width="140.000000pt" height="140.000000pt" viewBox="0 0 140.000000 140.000000"
 preserveAspectRatio="xMidYMid meet">

<g transform="translate(0.000000,140.000000) scale(0.100000,-0.100000)"
fill="#000000" stroke="none">
<path d="M755 1340 c-4 -6 -1 -9 7 -8 7 2 24 -21 39 -52 21 -44 39 -64 84 -94
54 -36 71 -61 25 -36 -12 7 -31 10 -41 7 -13 -4 -27 5 -44 26 -27 35 -35 25
-9 -11 12 -18 13 -22 1 -22 -22 0 -47 35 -54 74 -4 25 -10 35 -19 32 -7 -3
-14 0 -17 7 -2 6 -6 1 -10 -12 -5 -19 -2 -22 13 -18 14 3 19 -3 24 -25 3 -17
17 -39 31 -50 37 -29 33 -48 -9 -38 -77 17 -150 -10 -233 -89 -29 -26 -38 -26
-34 1 3 23 -21 58 -39 58 -30 0 -80 -28 -80 -45 0 -8 -11 -17 -25 -21 -30 -8
-50 -60 -39 -107 4 -17 7 -39 6 -47 -1 -10 1 -11 4 -2 8 18 44 15 67 -5 19
-17 20 -17 9 3 -6 12 -9 24 -6 26 2 3 -6 3 -19 1 -37 -7 -60 23 -53 66 7 44
35 69 52 46 17 -23 20 -19 16 19 -3 30 -1 34 29 45 17 6 36 11 41 11 15 0 26
-44 17 -68 -6 -15 -5 -21 1 -17 6 3 10 -3 10 -14 0 -11 5 -23 11 -27 15 -9 6
-98 -11 -119 -9 -11 -16 -12 -26 -4 -10 8 -12 4 -7 -24 3 -22 -1 -46 -12 -67
-16 -30 -19 -32 -30 -17 -6 9 -15 14 -18 10 -4 -3 -10 2 -13 11 -5 12 -9 14
-14 6 -12 -20 -38 1 -48 38 -7 25 -10 30 -11 15 -2 -37 20 -73 44 -73 31 0 51
-28 54 -75 2 -22 21 -87 43 -145 42 -108 43 -118 52 -334 3 -90 2 -97 -11 -73
-7 15 -15 27 -16 27 -2 0 4 -29 12 -65 15 -64 30 -85 32 -45 1 11 3 25 4 30 1
6 3 40 4 76 1 58 4 69 30 95 44 43 73 39 105 -16 18 -31 25 -52 20 -69 -3 -14
-9 -25 -13 -24 -24 3 -40 -4 -35 -16 6 -16 54 -9 54 8 0 6 5 3 11 -7 14 -25
11 -27 -50 -31 -49 -3 -53 -2 -49 18 2 12 -4 29 -15 39 -18 19 -19 18 -12 -3
4 -14 1 -28 -9 -38 -9 -11 -12 -23 -7 -31 5 -7 6 -23 3 -35 -5 -18 -2 -17 19
7 20 23 33 29 77 31 52 2 53 2 47 -23 -4 -18 -3 -22 3 -12 8 11 10 11 14 0 3
-10 6 -10 12 -1 4 7 2 12 -3 12 -6 0 -11 18 -11 40 0 38 2 40 20 30 11 -6 20
-8 20 -4 0 3 7 1 15 -6 8 -7 15 -8 15 -3 0 5 14 10 30 10 17 0 30 -4 30 -9 0
-4 7 -8 15 -8 25 0 36 -34 19 -58 -14 -21 -14 -22 8 -21 13 0 17 3 10 6 -17 7
-5 23 19 23 10 0 19 -7 19 -15 0 -8 7 -15 15 -15 8 0 15 8 15 18 1 16 1 16 11
-1 5 -9 15 -17 20 -17 6 0 1 13 -11 30 -20 28 -20 30 -3 30 27 -1 103 -37 103
-50 0 -6 4 -9 10 -5 14 9 2 31 -26 43 -13 7 -24 20 -24 30 0 24 -30 111 -40
117 -4 3 0 -18 11 -45 27 -71 25 -88 -7 -82 -14 2 -29 14 -34 26 l-9 21 0 -22
c-1 -17 -5 -20 -23 -15 -18 5 -19 7 -6 10 24 5 31 50 15 102 l-14 45 5 -70 c4
-60 3 -68 -9 -58 -12 10 -13 28 -6 105 5 51 14 98 19 105 7 9 21 5 56 -14 114
-63 133 -94 133 -214 0 -49 5 -89 10 -89 12 0 11 126 -2 174 -6 21 -28 57 -50
80 -50 55 -64 117 -55 241 20 283 20 283 -15 375 -17 47 -32 97 -32 113 -1 15
-5 27 -9 27 -5 0 -8 7 -8 15 0 18 16 20 23 3 4 -9 5 -8 6 2 0 8 -24 33 -52 55
-51 39 -51 40 -24 43 15 2 27 7 27 13 0 5 -32 30 -72 56 -60 40 -74 55 -86 91
-14 43 -45 71 -57 52z m85 -221 c0 -6 -4 -7 -10 -4 -5 3 -10 11 -10 16 0 6 5
7 10 4 6 -3 10 -11 10 -16z m43 8 c9 8 48 -27 42 -37 -3 -4 9 -18 25 -30 17
-13 30 -28 30 -33 0 -6 -16 4 -35 23 -19 18 -33 36 -30 38 7 7 -15 32 -27 32
-6 0 -5 -7 2 -15 15 -17 7 -19 -21 -5 -10 6 -19 18 -19 27 0 12 3 13 13 4 8
-6 17 -8 20 -4z m-125 -149 c-3 -21 1 -23 44 -22 27 0 45 -3 41 -9 -3 -5 -18
-7 -33 -5 -22 3 -31 -1 -39 -19 -6 -13 -19 -23 -31 -23 -17 0 -20 7 -20 41 0
22 4 38 9 35 5 -3 11 1 15 9 8 23 18 18 14 -7z m203 9 c-7 -7 -14 -8 -21 -1
-6 6 -2 10 12 11 16 2 18 -1 9 -10z m-43 -14 c2 -9 -7 -13 -27 -13 -21 0 -31
5 -31 16 0 19 51 16 58 -3z m-213 -24 c10 -15 2 -19 -24 -12 -17 4 -19 8 -9
14 18 12 26 11 33 -2z m-157 -37 c-2 -10 3 -22 11 -28 17 -13 8 -44 -13 -44
-10 0 -14 13 -14 50 -1 31 3 48 9 44 6 -3 9 -13 7 -22z m49 2 c2 -6 -5 -14
-17 -17 -15 -4 -20 0 -20 15 0 21 30 23 37 2z m87 10 c26 -10 18 -21 -14 -21
-18 0 -30 6 -30 14 0 14 18 17 44 7z m2 -256 c33 -29 37 -31 49 -15 7 9 24 17
39 17 14 0 26 5 26 10 0 7 6 7 18 2 9 -5 34 -12 54 -16 42 -8 68 -43 68 -94 0
-38 -49 -105 -100 -137 -92 -58 -232 -10 -264 93 -9 29 2 82 17 79 6 -1 12 7
14 18 9 47 14 51 29 25 15 -25 15 -25 11 13 -1 20 -2 37 0 37 1 0 19 -14 39
-32z m217 -343 c12 -8 10 -20 -7 -75 -17 -50 -20 -75 -14 -105 5 -24 5 -42 -2
-49 -7 -7 -10 -7 -10 1 0 7 -24 11 -61 12 -73 1 -79 4 -79 42 0 21 5 29 17 29
14 0 13 3 -5 16 -15 10 -22 26 -22 47 0 21 -3 28 -9 19 -7 -11 -9 -11 -14 1
-6 17 38 87 56 87 8 0 7 -4 -3 -10 -8 -5 -11 -12 -8 -15 14 -14 29 8 26 37 -3
27 1 31 36 43 21 8 44 19 50 25 8 8 14 -2 23 -42 6 -29 18 -57 26 -63z m-337
-38 c5 -36 2 -49 -21 -82 -22 -32 -26 -35 -22 -15 4 14 7 63 7 110 1 81 2 84
16 58 8 -15 17 -47 20 -71z m353 79 c9 -11 9 -16 0 -21 -10 -7 -28 10 -29 28
0 12 17 8 29 -7z m3 -231 c4 -38 -6 -48 -15 -14 -5 18 0 49 8 49 2 0 5 -16 7
-35z m5 -67 c-3 -8 -6 -5 -6 6 -1 11 2 17 5 13 3 -3 4 -12 1 -19z m-327 -9 c0
-11 -4 -17 -10 -14 -5 3 -10 13 -10 21 0 8 5 14 10 14 6 0 10 -9 10 -21z m365
2 c3 -5 1 -12 -5 -16 -5 -3 -10 1 -10 9 0 18 6 21 15 7z"/>
<path d="M737 943 c-10 -9 -9 -23 1 -23 5 0 9 7 9 15 0 17 -1 18 -10 8z"/>
<path d="M800 637 c0 -10 14 -13 50 -13 63 1 60 20 -3 24 -35 2 -47 -1 -47
-11z"/>
<path d="M621 589 c-22 -13 -30 -24 -24 -30 11 -11 83 26 83 42 0 15 -23 10
-59 -12z"/>
<path d="M758 453 c7 -3 16 -2 19 1 4 3 -2 6 -13 5 -11 0 -14 -3 -6 -6z"/>
<path d="M732 1300 c0 -14 2 -19 5 -12 2 6 2 18 0 25 -3 6 -5 1 -5 -13z"/>
<path d="M407 933 c3 -15 13 -23 26 -23 11 0 18 2 16 4 -2 2 -7 4 -11 3 -4 -1
-14 7 -22 18 -15 20 -15 20 -9 -2z"/>
<path d="M430 888 c0 -9 5 -20 10 -23 13 -8 13 5 0 25 -8 13 -10 13 -10 -2z"/>
<path d="M313 602 c-14 -9 -5 -58 20 -112 9 -19 16 -51 16 -70 -1 -19 0 -57 1
-85 2 -43 4 -47 13 -27 10 23 23 27 51 16 25 -10 19 -22 -9 -16 -20 3 -25 0
-25 -15 0 -11 3 -23 8 -27 4 -4 7 -27 8 -49 0 -23 4 -55 8 -72 6 -22 5 -26 -3
-15 -9 13 -11 12 -11 -3 0 -11 5 -17 13 -14 12 4 14 32 5 77 -3 14 -3 19 -1
12 3 -6 13 -12 23 -12 16 0 19 5 14 33 -3 17 -8 38 -10 45 -2 7 1 10 6 7 13
-8 13 -10 -6 50 -8 28 -17 59 -19 69 -3 10 -14 27 -25 38 -11 10 -20 31 -20
46 0 39 -24 125 -35 129 -6 1 -15 -1 -22 -5z m33 -73 c7 -21 9 -39 5 -39 -7 0
-31 67 -31 85 0 18 15 -9 26 -46z"/>
<path d="M976 283 c11 -44 24 -76 29 -71 5 5 -24 98 -31 98 -2 0 -1 -12 2 -27z"/>
<path d="M451 250 c0 -8 4 -24 9 -35 l9 -20 0 20 c0 11 -4 27 -9 35 -9 13 -10
13 -9 0z"/>
<path d="M350 238 c0 -9 5 -20 10 -23 13 -8 13 5 0 25 -8 13 -10 13 -10 -2z"/>
<path d="M435 139 c6 -32 4 -40 -5 -34 -9 5 -11 4 -6 -4 4 -6 12 -9 17 -6 8 5
14 -25 10 -48 -1 -5 4 -7 11 -4 9 3 12 21 10 56 -1 29 2 51 7 51 6 0 8 7 4 16
-5 13 -7 13 -14 2 -7 -10 -9 -10 -9 0 0 6 -7 12 -16 12 -13 0 -15 -7 -9 -41z"/>
<path d="M773 61 c49 -10 54 -17 32 -41 -28 -31 -11 -23 27 12 l34 33 -66 2
c-53 1 -58 0 -27 -6z"/>
<path d="M458 32 c-42 -5 -36 -32 7 -32 19 0 35 3 35 8 -1 17 -17 27 -42 24z"/>
<path d="M682 20 c0 -14 2 -19 5 -12 2 6 2 18 0 25 -3 6 -5 1 -5 -13z"/>
</g>
</svg>
